<?xml version="1.0" standalone="no"?>
<!DOCTYPE svg PUBLIC "-//W3C//DTD SVG 20010904//EN"
 "http://www.w3.org/TR/2001/REC-SVG-20010904/DTD/svg10.dtd">
<svg version="1.0" xmlns="http://www.w3.org/2000/svg"
 width="512.000000pt" height="512.000000pt" viewBox="0 0 512.000000 512.000000"
 preserveAspectRatio="xMidYMid meet">

<g transform="translate(0.000000,512.000000) scale(0.100000,-0.100000)"
fill="#fff" stroke="none">
<path d="M2195 4227 c-435 -219 -501 -256 -509 -279 -24 -68 -32 -62 509 -335
283 -143 512 -252 528 -252 17 -1 38 9 52 24 23 22 25 31 25 121 l0 96 253 -5
c204 -4 268 -9 337 -25 256 -61 446 -166 631 -351 231 -230 356 -506 376 -830
10 -160 -10 -151 323 -151 l271 0 24 25 c29 28 32 75 15 246 -24 232 -86 444
-196 664 -214 431 -575 761 -1022 935 -238 92 -404 121 -744 127 l-268 5 0 95
c0 86 -2 96 -25 118 -14 15 -35 25 -52 24 -16 0 -245 -109 -528 -252z m474
-128 c21 -18 42 -19 285 -19 275 0 381 -8 535 -40 214 -45 462 -155 651 -288
122 -86 326 -290 412 -412 184 -260 286 -540 323 -882 l6 -58 -160 0 -160 0
-6 48 c-23 191 -68 351 -140 497 -197 405 -562 690 -1005 786 -93 20 -140 23
-412 27 l-307 4 -25 -26 c-23 -22 -26 -33 -26 -96 l0 -70 -345 172 c-190 95
-345 175 -345 178 0 3 154 82 343 176 l342 172 5 -75 c4 -63 9 -78 29 -94z"/>
<path d="M1145 3015 l-25 -24 0 -218 0 -218 -133 0 c-169 -1 -250 -22 -447
-115 -155 -73 -259 -105 -382 -116 l-78 -7 0 -78 0 -79 34 0 c135 0 313 49
496 135 176 83 235 98 380 98 137 0 233 -23 349 -83 84 -44 583 -437 619 -488
58 -81 53 -175 -14 -281 l-45 -70 -316 210 c-173 116 -321 213 -328 215 -14 6
-100 -111 -91 -124 3 -4 168 -116 368 -249 l363 -241 680 -107 c443 -69 692
-112 714 -124 39 -20 71 -72 71 -116 0 -40 -32 -90 -72 -115 -32 -19 -52 -20
-703 -20 -910 0 -856 -9 -1375 245 -456 224 -498 235 -896 235 l-234 0 0 -79
0 -79 273 -4 c362 -6 352 -3 777 -213 341 -168 416 -198 590 -237 105 -23 108
-23 845 -23 l740 0 50 27 c133 70 193 214 149 354 -25 82 -108 166 -185 188
-30 8 -317 56 -639 106 -322 51 -593 95 -603 98 -16 6 -15 10 10 47 14 21 34
60 44 85 l17 45 907 5 907 5 19 24 c18 22 19 48 19 693 l0 669 -25 24 -24 25
-1391 0 -1391 0 -24 -25z m445 -147 c0 -29 -62 -140 -101 -182 -39 -43 -163
-116 -195 -116 -11 0 -14 31 -14 155 l0 155 155 0 c117 0 155 -3 155 -12z
m1788 -40 c45 -194 216 -365 410 -410 l52 -13 0 -85 0 -85 -52 -13 c-194 -45
-365 -216 -410 -409 l-13 -53 -607 0 c-572 0 -608 1 -608 18 0 21 -34 96 -63
141 -12 18 -102 98 -201 177 l-178 144 146 0 146 0 0 80 0 80 -160 0 -160 0 0
-65 c0 -36 -3 -65 -6 -65 -3 0 -38 26 -77 59 -40 32 -94 72 -120 89 l-47 30
52 30 c115 64 221 204 255 334 l17 68 806 0 805 0 13 -52z m462 -103 c0 -117
-3 -155 -12 -155 -29 0 -140 62 -182 101 -43 39 -116 163 -116 195 0 11 31 14
155 14 l155 0 0 -155z m0 -810 l0 -155 -155 0 c-117 0 -155 3 -155 13 0 28 62
139 101 181 39 43 163 116 195 116 11 0 14 -31 14 -155z"/>
<path d="M2466 2710 c-63 -16 -153 -70 -197 -117 -22 -24 -55 -74 -72 -111
-29 -61 -32 -76 -32 -163 0 -90 2 -99 37 -171 45 -91 103 -147 196 -191 61
-29 76 -32 162 -32 86 0 101 3 162 32 93 44 151 100 196 191 35 72 37 81 37
172 0 91 -2 100 -37 172 -68 136 -188 217 -336 224 -42 2 -94 -1 -116 -6z
m168 -162 c55 -16 138 -99 154 -154 28 -94 8 -169 -63 -239 -101 -102 -229
-102 -330 0 -102 101 -102 229 0 330 70 71 145 90 239 63z"/>
<path d="M3120 2320 l0 -80 160 0 160 0 0 80 0 80 -160 0 -160 0 0 -80z"/>
</g>
</svg>
